<svg xmlns="http://www.w3.org/2000/svg" viewBox="0 0 706.53 232.49"><defs><style>.cls-1{fill:#ce132e;}.cls-1,.cls-2{fill-rule:evenodd;}.cls-2{fill:#fff;}</style></defs><g id="Camada_2" data-name="Camada 2"><g id="Camada_2-2" data-name="Camada 2"><path class="cls-1" d="M526.35,201h2v-.78h1.19v-.39l.78-.78v-1.58h-.78v-.79h-.4l-.79-.79H523.6V201h2.75m-2.75,8.27h-2.36V194.33h9v.4h1.17v.78h.4v1.18h.78v3.15l-.78.39V201h-.4v.4h-.78v.79h-1.17l-.4.39h-.79l4.32,6.69h-2.35l-3.94-6.69H523.6Zm2.75,3.15h3.16l.78-.4h.39l.78-.78h.4l1.18-1.18h.79v-.79h.79v-.39l.39-.79.78-.39v-.79l.4-.39v-.79l.78-.4v-6.68l-.78-.79v-1.18l-.4-.79-.78-.39v-.78h-.39v-.4l-.79-.78-.79-.4h-.4v-.79h-.78l-.4-.38h-.78l-.39-.8h-2v-.39H526c-2.29-.17-.85.57-3.15.39l-.39.8h-1.18v.38h-.79l-1.18,1.19h-.79v.78l-1.18,1.18v.39h-.38v.79l-.79.79v1.58h-.4v5.11l.4.39v1.18l.79.79v.39l.38.79v.39h.8v.79l1.17,1.18h.4v.39h.78l.79.79.39.78h1.18v.4Zm-13.38-11v-2.75l.8-.79v-1.18l.78-.79v-.39l.39-.78.79-.4v-.78l2.37-2.37h.38l.79-.39.4-.79h.78l.79-.78h.39l.79-.4h5.9c3.76-.17,1,.52,3.14.4l.4.78h.78l.4.79h.79l.79.39H535v.8l.78.38h.4l.78.79v.4l.4.78.78.4v.78l.4.39v1.58l.79.39c-.08,2.19.64,1.26.38,4.72v1.58l-.38.39v1.18l-.79.79v1.18l-.4.39v.79l-.78.39H537v.79l-.78.39-.4.79H535V212l-.39.4h-.79l-.79.79h-.4l-.78.39h-.4l-.78.79h-1.17l-.4.39H526c-3.9.21-1.89-.54-4.33-.39l-.39-.79h-.79l-.78-.39h-.4v-.79h-.79l-1.18-1.18h-.38v-.79l-.79-.39-.4-.79-.79-.39-.39-.79v-.39l-.78-.79v-1.18l-.8-.4Z"/><polyline class="cls-1" points="353.27 232.49 706.53 116.44 353.27 0 0 116.44 353.27 232.49"/><path class="cls-2" d="M208.1,144.38c10.69-.88,21.32.78,31.87-.4h1.58l1.56-.79,1.19-.39,2-.79h1.18l1.19-.39,1.17-1.18,2.36-1.58,1.18-.39,1.58-1.18.39-.79,1.18-1.18.79-1.17,1.18-.4c.44-2.41,3.11-6.18,4.32-8.65v-1.19l.4-1.17v-4.33l.79-1.18v-2l-.79-1.17v-4.34l-.4-1.18V107.4l-.79-1.19V105l-.39-1.17L260,101.49l-.39-1.17-.79-.79-.39-1.19L257.28,98l-.79-1.57L255.31,96l-2-2-1.18-.39-1.57-.79-1.18-.39-1.18-.79c-12.69-4.55-26.48-.8-40.13-2.36v55.08M185.29,75.14V74h-.4v-.39h-.78v-.78c-2.94.14.53-.56-3.54-.4V70h57l3.94.39h2.35l2.76.79h3.14l2.36.4,3.15,1.18,2.36.78a44.22,44.22,0,0,1,15.74,10.23c8.65,7.52,14.23,22.28,14.16,33.44-.3,13.33-5.07,21.46-13.38,31.47-7.25,6-7.94,6.6-16.52,11l-2.36.39-3.15,1.57-2.36.39-2.36.79-3.14.39h-2.36l-3.15.79H180.57v-2.36h2.36l.79-.78h.39l1.18-1.18Z"/><path class="cls-2" d="M328.87,123.91l.79,1.19v3.54l.4,1.18V131l.78,1.18.39.79.79,1.19.39,1.17.79.79.4,1.18.78.4.79,1.17,1.18.79.39.79c2.86,1.78,5.34,2.74,7.87,4.72h1.18l1.18.39h2.76l1.17.79H358l1.18-.79h2.75l1.18-.39h1.18c2.53-2,5-2.94,7.87-4.72l.38-.79,1.19-.79.79-1.17.78-.4.4-1.18.79-.79.38-1.17.8-1.19.38-.79.8-1.18v-1.17l.39-1.18V125.1l.78-1.19-.78-2v-3.55l-.39-.79v-1.18l-.8-1.18-.38-1.17-.8-1.19-.38-.39-.79-1.57-.4-.4-.78-1.18-.79-.79-1.19-.39-.38-1.18-.79-.79-1.18-.39L369,105l-.39-.39-1.58-.78-1.18-.79-.4-.4h-1.17l-1.18-.78h-1.18l-1.58-.4c-5.54.27-.35-1-5.9-.78h-2.36l-1.18.78h-2.36l-1.57.4h-1.18l-1.18.78h-1.18l-.39.4-1.18.79-1.58.78c-2,2.31-3.22.41-3.93,3.54l-1.18.39-.79.79-.78,1.18-.4.4-.79,1.57-.39.39-.79,1.19c-2.77,5.17-.51,6-2.36,9.82m73.57,0c-.13,54.2-95.56,54.57-96,0C306.12,68.76,403.05,69.11,402.44,123.91Z"/><path class="cls-2" d="M526.35,159.72v.39h.79v.79l.79.78h.39v.39h1.19v2H498.43v-2h1.95v-.39h.8l.39-.78v-3.16l-.39-1.57-1.58-2c-4.35-14.06-9.65-27.84-14.55-41.7l-16.92,47.21v.39h.79v.79h.38v.78h1.2l.78.39h.4v2H440.2v-2h.8l.38-.39h1.17v-.78h.8v-1.18L417,88.51v-.39l-.4-.79h-1.18l-.79-.39h-.38V85h30.28v2l-.78.39h-1.2l-.38.79-.79.39v.79l14.56,46h.78l15.74-48h24.79l16.52,48h.78l14.56-46v-.79h-.79v-.39h-.39l-.79-.79h-2V85.76h31.08v1.57h-1.58l-.79.79h-.79v.39h-.39l-26.36,71.21"/></g></g></svg>