<svg xmlns="http://www.w3.org/2000/svg" viewBox="0 0 636.04 169.3"><defs><style>.cls-1{isolation:isolate;}.cls-2{fill:#db3131;}.cls-3{fill:#d44845;}.cls-4{fill:#c6842a;}.cls-11,.cls-12,.cls-5,.cls-7{fill:#fff;}.cls-6{fill:#543732;}.cls-7{mix-blend-mode:overlay;}.cls-8{fill:#b82420;}.cls-9{fill:#e58872;}.cls-10{opacity:0.52;}.cls-10,.cls-11,.cls-12{mix-blend-mode:soft-light;}.cls-12{opacity:0.54;}.cls-13{opacity:0.46;}</style></defs><g class="cls-1"><g id="Camada_2" data-name="Camada 2"><g id="Camada_2-2" data-name="Camada 2"><path class="cls-2" d="M75.76,92.52a44.8,44.8,0,0,1-2.91,16.79,34.52,34.52,0,0,1-8,12.12,32.93,32.93,0,0,1-12,7.35,44.76,44.76,0,0,1-15,2.46,43.55,43.55,0,0,1-14.71-2.46,34.11,34.11,0,0,1-12.08-7.35A34.48,34.48,0,0,1,3,109.31,44.19,44.19,0,0,1,0,92.52,42.61,42.61,0,0,1,3.07,75.74a35.83,35.83,0,0,1,8.29-12.18,34.51,34.51,0,0,1,12.08-7.4A42.49,42.49,0,0,1,37.88,53.7a43.55,43.55,0,0,1,14.71,2.46,33.72,33.72,0,0,1,12.08,7.4A34.91,34.91,0,0,1,72.8,75.74,44.14,44.14,0,0,1,75.76,92.52Zm-58.08,0a32.89,32.89,0,0,0,1.37,9.87A22.28,22.28,0,0,0,23,110a17.39,17.39,0,0,0,6.32,4.88,20.16,20.16,0,0,0,8.56,1.72,20.31,20.31,0,0,0,8.51-1.72A17.24,17.24,0,0,0,52.76,110a22.46,22.46,0,0,0,4-7.56,32.89,32.89,0,0,0,1.37-9.87,33.46,33.46,0,0,0-1.37-9.92,22.43,22.43,0,0,0-4-7.61,17.24,17.24,0,0,0-6.37-4.88,20.31,20.31,0,0,0-8.51-1.72,19.72,19.72,0,0,0-8.56,1.77A18.09,18.09,0,0,0,23,75.09a22.21,22.21,0,0,0-3.95,7.62A33,33,0,0,0,17.68,92.52Z"/><path class="cls-2" d="M124.13,97.35q-2.2,8.15-4.67,16.2t-5.21,16.19H101.51q-2-4.5-4.3-10.73t-4.79-13.56Q89.95,98.1,87.36,89.9t-5-16.58H99.59q.89,3.87,1.93,8.42c.7,3,1.43,6.17,2.21,9.39s1.58,6.45,2.43,9.71,1.71,6.38,2.59,9.38q1.44-4.73,2.81-9.65t2.63-9.71c.84-3.18,1.65-6.26,2.42-9.22s1.44-5.74,2-8.32H130.5q.87,3.87,2,8.32c.73,3,1.5,6,2.31,9.22s1.64,6.42,2.52,9.71,1.8,6.5,2.75,9.65q1.32-4.5,2.65-9.38t2.48-9.71c.78-3.22,1.51-6.35,2.21-9.39s1.35-5.84,1.94-8.42h17q-2.42,8.37-5,16.58t-5.06,15.55q-2.47,7.35-4.85,13.56t-4.35,10.73H134.34q-2.75-8.15-5.38-16.19T124.13,97.35Z"/><path class="cls-2" d="M198.08,130.81a41.78,41.78,0,0,1-11.59-1.5,17.2,17.2,0,0,1-7-3.91,12.82,12.82,0,0,1-3.52-6.12,32.29,32.29,0,0,1-.93-8.09V49.09l16.36-2.58V108a20.5,20.5,0,0,0,.33,3.86,6.58,6.58,0,0,0,1.26,2.89,6.66,6.66,0,0,0,2.69,1.94,15,15,0,0,0,4.72,1Z"/><path class="cls-2" d="M263.41,101.53a34.79,34.79,0,0,1-2,12.23A25,25,0,0,1,246.06,129a36.14,36.14,0,0,1-12.74,2.09c-2,0-4-.09-6.2-.26s-4.29-.42-6.37-.7-4.08-.63-6-1-3.59-.8-5.06-1.23V49.09l16.36-2.58v28.1a31.91,31.91,0,0,1,5.71-1.82,30,30,0,0,1,6.37-.65A26.52,26.52,0,0,1,249,74.24a21.17,21.17,0,0,1,7.91,6,26.57,26.57,0,0,1,4.83,9.28A41.28,41.28,0,0,1,263.41,101.53Zm-16.69-.43q0-15.43-11.64-15.44a19.71,19.71,0,0,0-5,.64,14.72,14.72,0,0,0-4,1.61V117c.81.14,1.83.27,3.08.37s2.6.16,4.06.16q6.71,0,10.1-4.5C245.58,110,246.72,106,246.72,101.1Z"/><path class="cls-2" d="M293.93,57A8.68,8.68,0,0,1,291,63.94a10.61,10.61,0,0,1-13.73,0A8.68,8.68,0,0,1,274.38,57a8.68,8.68,0,0,1,2.91-6.92,10.61,10.61,0,0,1,13.73,0A8.68,8.68,0,0,1,293.93,57Zm-1.54,72.72H276V73.32h16.36Z"/><path class="cls-2" d="M330.82,130.81a41.65,41.65,0,0,1-11.58-1.5,17.24,17.24,0,0,1-7-3.91,13,13,0,0,1-3.52-6.12,32.29,32.29,0,0,1-.93-8.09V49.09l16.36-2.58V108a20.5,20.5,0,0,0,.33,3.86,6.58,6.58,0,0,0,1.26,2.89,6.66,6.66,0,0,0,2.69,1.94,15,15,0,0,0,4.73,1Z"/><path class="cls-2" d="M360.35,57a8.68,8.68,0,0,1-2.91,6.92,10.6,10.6,0,0,1-13.72,0A8.68,8.68,0,0,1,340.81,57a8.68,8.68,0,0,1,2.91-6.92,10.6,10.6,0,0,1,13.72,0A8.68,8.68,0,0,1,360.35,57Zm-1.53,72.72H342.46V73.32h16.36Z"/><path class="cls-2" d="M373.64,59.27,390,56.7V73.32h19.65v13.3H390v19.85a15.45,15.45,0,0,0,1.81,8q1.81,3,7.3,3a32.21,32.21,0,0,0,5.44-.48,28.48,28.48,0,0,0,5.1-1.34L412,128.13a46.61,46.61,0,0,1-6.59,2,39.32,39.32,0,0,1-8.89.86,29.85,29.85,0,0,1-11.09-1.77,17.41,17.41,0,0,1-7-4.94,18.13,18.13,0,0,1-3.68-7.66,44.65,44.65,0,0,1-1-10Z"/><path class="cls-2" d="M475.42,73.32q-4.95,16.31-10.35,30.57t-11.78,27.67a63.19,63.19,0,0,1-4.61,8.21,25.7,25.7,0,0,1-5.06,5.58,18.14,18.14,0,0,1-6.22,3.21,28.66,28.66,0,0,1-8.08,1,33.42,33.42,0,0,1-7.09-.7,31.8,31.8,0,0,1-5.33-1.55l2.85-12.76a29.47,29.47,0,0,0,4.51,1.18,26.42,26.42,0,0,0,4.17.32q4.4,0,6.76-2.31a18.54,18.54,0,0,0,4-6.38Q433.59,116.66,428,103.3a294.53,294.53,0,0,1-10.54-30h17.34c.74,2.79,1.6,5.81,2.6,9.07s2,6.54,3.14,9.86,2.22,6.57,3.36,9.71,2.23,6,3.26,8.58q1.43-3.86,3-8.58t3-9.71q1.48-5,2.86-9.86t2.48-9.07Z"/><path class="cls-3" d="M624.31,124.34c-7.91,37.3-58.78,36.17-58.78,36.17s-33.23.73-50.15-18.69a38.19,38.19,0,0,1-8.63-17.48C498.84,87,510.14,35,510.14,35c-2.26-15.82,0-35,0-35,10.18,2.26,21.48,12.43,21.48,12.43,13.56-9,33.91-9,33.91-9s20.35,0,33.91,9c0,0,11.3-10.17,21.48-12.43,0,0,2.26,19.22,0,35C620.92,35,632.22,87,624.31,124.34Z"/><path class="cls-4" d="M555.1,162.49c-2-6.38-9.21-6.84-11.3-6.83h-.2c-2.09,0-9.32.45-11.3,6.83-1.91,6.14,4.33,8.74,7.07,2.75,0,0-.31,3.62,3.94,4v0l.39,0,.39,0v0c4.25-.4,3.94-4,3.94-4C550.77,171.23,557,168.63,555.1,162.49Z"/><path class="cls-4" d="M597.22,162.49c-2-6.38-9.21-6.84-11.31-6.83h-.19c-2.1,0-9.32.45-11.31,6.83-1.91,6.14,4.34,8.74,7.08,2.75,0,0-.31,3.62,3.93,4v0l.4,0,.39,0v0c4.24-.4,3.93-4,3.93-4C592.88,171.23,599.13,168.63,597.22,162.49Z"/><circle class="cls-5" cx="541.58" cy="51.22" r="19.24"/><circle class="cls-6" cx="538.38" cy="48.39" r="11.18"/><path class="cls-7" d="M548.35,46.16s-6.13,10.22-18.07,8.17A9.86,9.86,0,0,0,541.86,58C550.06,55.26,548.35,46.16,548.35,46.16Z"/><path class="cls-7" d="M547.59,51.43s-2.31,8.62-12.81,6.08A15.8,15.8,0,0,0,547.59,51.43Z"/><path class="cls-7" d="M536.94,42.71a2.7,2.7,0,1,1-2.7-2.7A2.7,2.7,0,0,1,536.94,42.71Z"/><circle class="cls-5" cx="589.33" cy="51.43" r="19.24"/><circle class="cls-6" cx="586.13" cy="48.61" r="11.18" transform="translate(404.79 608.09) rotate(-76.78)"/><path class="cls-7" d="M596.1,46.37S590,56.59,578,54.54a9.84,9.84,0,0,0,11.58,3.67C597.81,55.47,596.1,46.37,596.1,46.37Z"/><path class="cls-7" d="M595.33,51.64s-2.3,8.62-12.81,6.08A15.79,15.79,0,0,0,595.33,51.64Z"/><path class="cls-7" d="M584.69,42.92a2.71,2.71,0,1,1-2.7-2.7A2.7,2.7,0,0,1,584.69,42.92Z"/><path class="cls-4" d="M565.53,66.93s-6.72,1.64-8.91,7.35a17.39,17.39,0,0,0,8.91,11.18,17.39,17.39,0,0,0,8.91-11.18C572.25,68.57,565.53,66.93,565.53,66.93Z"/><path class="cls-8" d="M599.44,12.43c-13.56-9-33.91-9-33.91-9s-20.35,0-33.91,9c0,0-11.3-10.17-21.48-12.43,0,0,12.64,15.63,21.4,21.28s25.51.25,34,16.15c8.48-15.9,25.24-10.49,34-16.15S620.92,0,620.92,0C610.74,2.26,599.44,12.43,599.44,12.43Z"/><path class="cls-8" d="M565.53,93s-44.66-2.11-50.15,48.85c16.92,19.42,50.15,18.69,50.15,18.69s33.23.73,50.15-18.69C610.19,90.86,565.53,93,565.53,93Z"/><path class="cls-9" d="M505.09,69.66s15.33-2,17.14,27.73C523.7,121.47,511,135.7,511,135.7S479.06,105.5,505.09,69.66Z"/><path class="cls-10" d="M609.59,126.74s-49.45,31.06-88.73,0c0,0-3.66,9.49-7.48,12.92,0,0,15.67,21.56,52.45,20.84,15.12-.3,40.93-5.1,51.11-20.84Z"/><path class="cls-9" d="M625.83,69.66s-15.33-2-17.14,27.73c-1.47,24.08,11.21,38.31,11.21,38.31S651.86,105.5,625.83,69.66Z"/><path class="cls-11" d="M565.53,83.74V68.39a11.18,11.18,0,0,0-7.82,5.84S559.78,81.86,565.53,83.74Z"/><path class="cls-12" d="M587.14,10.81c0,2.77-9.17,5-20.47,5s-20.48-2.24-20.48-5,9.17-5,20.48-5S587.14,8,587.14,10.81Z"/><path class="cls-10" d="M520.6,104.35s-1.13,18.58-9.75,28.32c0,0-16.39-13.7-14.27-41.25C496.58,91.42,501.1,118.28,520.6,104.35Z"/><path class="cls-10" d="M610.2,105.61s1.13,18.57,9.75,28.32c0,0,16.39-13.71,14.27-41.26C634.22,92.67,629.7,119.54,610.2,105.61Z"/><g class="cls-13"><path class="cls-11" d="M540.32,110.86a3.88,3.88,0,0,0-3.88,3.88s.2,5.46,3.88,8.23c3.69-2.77,3.88-8.23,3.88-8.23A3.88,3.88,0,0,0,540.32,110.86Z"/><path class="cls-11" d="M556.41,110.86a3.88,3.88,0,0,0-3.87,3.88s.19,5.46,3.87,8.23c3.69-2.77,3.88-8.23,3.88-8.23A3.88,3.88,0,0,0,556.41,110.86Z"/><path class="cls-11" d="M572.5,110.86a3.88,3.88,0,0,0-3.87,3.88s.19,5.46,3.87,8.23c3.69-2.77,3.88-8.23,3.88-8.23A3.88,3.88,0,0,0,572.5,110.86Z"/><path class="cls-11" d="M588.6,110.86a3.88,3.88,0,0,0-3.88,3.88s.19,5.46,3.88,8.23c3.68-2.77,3.87-8.23,3.87-8.23A3.88,3.88,0,0,0,588.6,110.86Z"/></g><g class="cls-13"><path class="cls-11" d="M548.37,126.57a3.88,3.88,0,0,0-3.88,3.87s.19,5.46,3.88,8.24c3.69-2.78,3.88-8.24,3.88-8.24A3.88,3.88,0,0,0,548.37,126.57Z"/><path class="cls-11" d="M564.46,126.57a3.88,3.88,0,0,0-3.88,3.87s.19,5.46,3.88,8.24c3.69-2.78,3.88-8.24,3.88-8.24A3.88,3.88,0,0,0,564.46,126.57Z"/><path class="cls-11" d="M580.55,126.57a3.88,3.88,0,0,0-3.88,3.87s.19,5.46,3.88,8.24c3.69-2.78,3.88-8.24,3.88-8.24A3.88,3.88,0,0,0,580.55,126.57Z"/></g><g class="cls-13"><path class="cls-11" d="M556.41,141.71a3.87,3.87,0,0,0-3.87,3.87s.19,5.46,3.87,8.24c3.69-2.78,3.88-8.24,3.88-8.24A3.87,3.87,0,0,0,556.41,141.71Z"/><path class="cls-11" d="M572.5,141.71a3.87,3.87,0,0,0-3.87,3.87s.19,5.46,3.87,8.24c3.69-2.78,3.88-8.24,3.88-8.24A3.87,3.87,0,0,0,572.5,141.71Z"/></g></g></g></g></svg>